{"accessors":[{"bufferView":0,"componentType":5126,"count":559,"min":[-0.9999998211860657,-1.0,-1.0],"max":[1.000000238418579,1.0,1.0000003576278687],"type":"VEC3","name":"Sphere.006_vertices#0_POSITION"},{"bufferView":0,"byteOffset":12,"componentType":5120,"count":559,"type":"VEC4","name":"Sphere.006_vertices#0_TANGENT"},{"bufferView":0,"byteOffset":16,"componentType":5120,"count":559,"type":"VEC4","name":"Sphere.006_vertices#0_NORMAL"},{"bufferView":0,"byteOffset":20,"componentType":5122,"count":559,"type":"VEC2","name":"Sphere.006_vertices#0_TEXCOORD_0"},{"bufferView":0,"byteOffset":24,"componentType":5122,"count":559,"type":"VEC2","name":"Sphere.006_vertices#0_TEXCOORD_1"},{"bufferView":0,"byteOffset":28,"componentType":5123,"count":559,"type":"VEC4","name":"Sphere.006_vertices#0_COLOR_0"},{"bufferView":1,"componentType":5123,"count":2880,"type":"SCALAR","name":"Sphere.006_indices#0"}],"asset":{"generator":"Extended Khronos glTF Blender I/O v1.0.0","version":"2.0","extensions":{"ASOBO_asset_optimized":{"BoundingBoxMax":[1.000000238418579,1.0,1.0000003576278687],"BoundingBoxMin":[-0.9999998211860657,-1.0,-1.0],"MajorVersion":4,"MinorVersion":2},"ASOBO_normal_map_convention":{"tangent_space_convention":"DirectX"}}},"bufferViews":[{"buffer":0,"byteLength":20124,"byteStride":36,"byteOffset":100,"target":34962,"name":"BufferViewVertexND"},{"buffer":0,"byteLength":5760,"byteOffset":20224,"target":34963,"name":"BufferViewIndex"}],"extensionsUsed":["ASOBO_normal_map_convention","ASOBO_asset_optimized"],"materials":[{"name":"Material.001","alphaMode":"BLEND","emissiveFactor":[0.799102783203125,0.0,0.0027317421045154335],"pbrMetallicRoughness":{"baseColorFactor":[0.8000000715255737,0.0,0.00916885770857334,1.0],"metallicFactor":0.0,"roughnessFactor":0.5}}],"meshes":[{"primitives":[{"attributes":{"COLOR_0":5,"NORMAL":2,"POSITION":0,"TANGENT":1,"TEXCOORD_0":3,"TEXCOORD_1":4},"indices":6,"material":0,"mode":4,"extras":{"ASOBO_primitive":{"PrimitiveCount":960,"VertexType":"VTX","VertexVersion":2}}}],"name":"Sphere.006"}],"nodes":[{"translation":[0.0028304308652877809,0.03570336103439331,-0.025195764377713205],"scale":[3.0,3.0,3.0],"mesh":0,"name":"Sphere.006"}],"scene":0,"scenes":[{"nodes":[0],"name":"Scene"}],"buffers":[{"byteLength":25984,"uri":"BEACONLIGHTNEW_LOD02.bin"}]}
