{"accessors":[{"bufferView":0,"componentType":5126,"count":24,"min":[-1.0,-1.0,-1.0],"max":[1.0,1.0,1.0],"type":"VEC3","name":"Cube_vertices#0_POSITION"},{"bufferView":0,"byteOffset":12,"componentType":5120,"count":24,"type":"VEC4","name":"Cube_vertices#0_TANGENT"},{"bufferView":0,"byteOffset":16,"componentType":5120,"count":24,"type":"VEC4","name":"Cube_vertices#0_NORMAL"},{"bufferView":0,"byteOffset":20,"componentType":5122,"count":24,"type":"VEC2","name":"Cube_vertices#0_TEXCOORD_0"},{"bufferView":0,"byteOffset":24,"componentType":5122,"count":24,"type":"VEC2","name":"Cube_vertices#0_TEXCOORD_1"},{"bufferView":0,"byteOffset":28,"componentType":5123,"count":24,"type":"VEC4","name":"Cube_vertices#0_COLOR_0"},{"bufferView":1,"componentType":5123,"count":36,"type":"SCALAR","name":"Cube_indices#0"},{"bufferView":0,"byteOffset":864,"componentType":5126,"count":559,"min":[-0.9999998211860657,-1.0,-1.0],"max":[1.000000238418579,1.0,1.0000003576278687],"type":"VEC3","name":"Sphere_vertices#0_POSITION"},{"bufferView":0,"byteOffset":876,"componentType":5120,"count":559,"type":"VEC4","name":"Sphere_vertices#0_TANGENT"},{"bufferView":0,"byteOffset":880,"componentType":5120,"count":559,"type":"VEC4","name":"Sphere_vertices#0_NORMAL"},{"bufferView":0,"byteOffset":884,"componentType":5122,"count":559,"type":"VEC2","name":"Sphere_vertices#0_TEXCOORD_0"},{"bufferView":0,"byteOffset":888,"componentType":5122,"count":559,"type":"VEC2","name":"Sphere_vertices#0_TEXCOORD_1"},{"bufferView":0,"byteOffset":892,"componentType":5123,"count":559,"type":"VEC4","name":"Sphere_vertices#0_COLOR_0"},{"bufferView":1,"byteOffset":72,"componentType":5123,"count":2880,"type":"SCALAR","name":"Sphere_indices#0"}],"asset":{"generator":"Extended Khronos glTF Blender I/O v1.0.0","version":"2.0","extensions":{"ASOBO_asset_optimized":{"BoundingBoxMax":[1.000000238418579,1.0,1.0000003576278687],"BoundingBoxMin":[-1.0,-1.0,-1.0],"MajorVersion":4,"MinorVersion":2},"ASOBO_normal_map_convention":{"tangent_space_convention":"DirectX"}}},"bufferViews":[{"buffer":0,"byteLength":20988,"byteStride":36,"byteOffset":4,"target":34962,"name":"BufferViewVertexND"},{"buffer":0,"byteLength":5832,"byteOffset":21048,"target":34963,"name":"BufferViewIndex"}],"extensionsUsed":["ASOBO_normal_map_convention","ASOBO_macro_light","ASOBO_asset_optimized"],"materials":[{"name":"Material","alphaMode":"BLEND"},{"name":"Material.001","emissiveFactor":[1.0,0.0,0.007499032653868198],"pbrMetallicRoughness":{"baseColorFactor":[1.0,0.0,0.007259461097419262,1.0],"metallicFactor":0.0,"roughnessFactor":0.5}}],"meshes":[{"primitives":[{"attributes":{"COLOR_0":5,"NORMAL":2,"POSITION":0,"TANGENT":1,"TEXCOORD_0":3,"TEXCOORD_1":4},"indices":6,"material":0,"mode":4,"extras":{"ASOBO_primitive":{"PrimitiveCount":12,"VertexType":"VTX","VertexVersion":2}}}],"name":"Cube"},{"primitives":[{"attributes":{"COLOR_0":12,"NORMAL":9,"POSITION":7,"TANGENT":8,"TEXCOORD_0":10,"TEXCOORD_1":11},"indices":13,"material":1,"mode":4,"extras":{"ASOBO_primitive":{"PrimitiveCount":960,"VertexType":"VTX","VertexVersion":2}}}],"name":"Sphere"}],"nodes":[{"mesh":0,"name":"Cube"},{"translation":[-0.4646328389644623,1.028834342956543,-0.7051089406013489],"scale":[0.01458999328315258,0.01458999328315258,0.01458999328315258],"mesh":1,"name":"Sphere"},{"translation":[-0.4712565243244171,1.0379421710968018,-0.7080390453338623],"rotation":[0.7071067690849304,0.0,0.0,0.7071068286895752],"extensions":{"ASOBO_macro_light":{"color":[1,0,0.010211280547082425],"cone_angle":360,"day_night_cycle":false,"flash_duration":0,"flash_frequency":0,"flash_phase":0,"has_simmetry":false,"intensity":75.79999542236328,"rotation_speed":0}},"name":"Point"}],"scene":0,"scenes":[{"nodes":[0,1,2],"name":"Scene"}],"buffers":[{"byteLength":26880,"uri":"TestBeaconLight.bin"}]}
