{"accessors":[{"bufferView":0,"componentType":5126,"count":1984,"min":[-0.9999998211860657,-1.0,-1.0],"max":[1.000000238418579,1.0,1.0000003576278687],"type":"VEC3","name":"Sphere.003_vertices#0_POSITION"},{"bufferView":0,"byteOffset":12,"componentType":5120,"count":1984,"type":"VEC4","name":"Sphere.003_vertices#0_TANGENT"},{"bufferView":0,"byteOffset":16,"componentType":5120,"count":1984,"type":"VEC4","name":"Sphere.003_vertices#0_NORMAL"},{"bufferView":0,"byteOffset":20,"componentType":5122,"count":1984,"type":"VEC2","name":"Sphere.003_vertices#0_TEXCOORD_0"},{"bufferView":0,"byteOffset":24,"componentType":5122,"count":1984,"type":"VEC2","name":"Sphere.003_vertices#0_TEXCOORD_1"},{"bufferView":0,"byteOffset":28,"componentType":5123,"count":1984,"type":"VEC4","name":"Sphere.003_vertices#0_COLOR_0"},{"bufferView":1,"componentType":5123,"count":2880,"type":"SCALAR","name":"Sphere.003_indices#0"}],"asset":{"generator":"Extended Khronos glTF Blender I/O v1.0.0","version":"2.0","extensions":{"ASOBO_asset_optimized":{"BoundingBoxMax":[1.000000238418579,1.0,1.0000003576278687],"BoundingBoxMin":[-0.9999998211860657,-1.0,-1.0],"MajorVersion":4,"MinorVersion":2},"ASOBO_normal_map_convention":{"tangent_space_convention":"DirectX"}}},"bufferViews":[{"buffer":0,"byteLength":71424,"byteStride":36,"target":34962,"name":"BufferViewVertexND"},{"buffer":0,"byteLength":5760,"byteOffset":71424,"target":34963,"name":"BufferViewIndex"}],"extensionsUsed":["ASOBO_normal_map_convention","ASOBO_macro_light","ASOBO_asset_optimized"],"materials":[{"name":"Material","alphaMode":"BLEND","emissiveFactor":[1.0,0.0,0.0]}],"meshes":[{"primitives":[{"attributes":{"COLOR_0":5,"NORMAL":2,"POSITION":0,"TANGENT":1,"TEXCOORD_0":3,"TEXCOORD_1":4},"indices":6,"material":0,"mode":4,"extras":{"ASOBO_primitive":{"PrimitiveCount":960,"VertexType":"VTX","VertexVersion":2}}}],"name":"Sphere.003"}],"nodes":[{"rotation":[0.6796079874038696,0.11504341661930084,0.06066734343767166,0.7219539284706116],"extras":{"msfs_light_day_night_cycle":0,"msfs_light_flash_frequency":0,"msfs_light_has_symmetry":1},"extensions":{"ASOBO_macro_light":{"color":[1,0,0.0014633957762271166],"cone_angle":360,"day_night_cycle":false,"flash_duration":0,"flash_frequency":0,"flash_phase":0,"has_simmetry":true,"intensity":44.12999725341797,"rotation_speed":0}},"name":"Point"},{"scale":[0.24352091550827024,0.24352091550827024,0.24352091550827024],"mesh":0,"name":"Sphere"}],"scene":0,"scenes":[{"nodes":[0,1],"name":"Scene"}],"buffers":[{"byteLength":77184,"uri":"BeaconLight.bin"}]}
