{"accessors":[{"bufferView":0,"componentType":5126,"count":2,"min":[0.0],"max":[3.33333325],"type":"SCALAR","name":"accessorAnimationInput"},{"bufferView":1,"componentType":5126,"count":2,"type":"VEC3","name":"accessorAnimationScales"},{"bufferView":0,"byteOffset":8,"componentType":5126,"count":2,"min":[0.0],"max":[3.33333325],"type":"SCALAR","name":"accessorAnimationInput"},{"bufferView":1,"byteOffset":24,"componentType":5126,"count":2,"type":"VEC3","name":"accessorAnimationScales"},{"bufferView":0,"byteOffset":16,"componentType":5126,"count":101,"min":[0.0],"max":[3.33333325],"type":"SCALAR","name":"accessorAnimationInput"},{"bufferView":2,"componentType":5126,"count":101,"type":"VEC4","name":"accessorAnimationRotations"},{"bufferView":3,"componentType":5126,"count":1350,"min":[-0.1300000548362732,0.0,-0.26249098777770998],"max":[1.1916131973266602,12.398667335510254,0.2615182399749756],"type":"VEC3","name":"Light_Sample_LOD0_vertices#0_POSITION"},{"bufferView":3,"byteOffset":12,"componentType":5120,"count":1350,"type":"VEC4","name":"Light_Sample_LOD0_vertices#0_TANGENT"},{"bufferView":3,"byteOffset":16,"componentType":5120,"count":1350,"type":"VEC4","name":"Light_Sample_LOD0_vertices#0_NORMAL"},{"bufferView":3,"byteOffset":20,"componentType":5122,"count":1350,"type":"VEC2","name":"Light_Sample_LOD0_vertices#0_TEXCOORD_0"},{"bufferView":3,"byteOffset":24,"componentType":5122,"count":1350,"type":"VEC2","name":"Light_Sample_LOD0_vertices#0_TEXCOORD_1"},{"bufferView":3,"byteOffset":28,"componentType":5123,"count":1350,"type":"VEC4","name":"Light_Sample_LOD0_vertices#0_COLOR_0"},{"bufferView":4,"componentType":5123,"count":1350,"type":"SCALAR","name":"Light_Sample_LOD0_indices#1"}],"animations":[{"name":"All Animations","channels":[{"sampler":0,"target":{"node":0,"path":"scale"}},{"sampler":1,"target":{"node":1,"path":"scale"}},{"sampler":2,"target":{"node":2,"path":"rotation"}}],"samplers":[{"input":0,"output":1,"interpolation":"LINEAR"},{"input":2,"output":3,"interpolation":"LINEAR"},{"input":4,"output":5,"interpolation":"LINEAR"}]}],"asset":{"generator":"babylon.js glTF exporter for 3dsmax 2019 v1.5.0","version":"2.0","extensions":{"ASOBO_asset_optimized":{"BoundingBoxMax":[1.1916131973266602,12.398667335510254,0.2615182399749756],"BoundingBoxMin":[-0.1300000548362732,0.0,-0.26249098777770998],"MajorVersion":4,"MinorVersion":2},"ASOBO_normal_map_convention":{"tangent_space_convention":"DirectX"}}},"bufferViews":[{"buffer":0,"byteLength":420,"byteOffset":92,"name":"bufferViewAnimationFloatScalar"},{"buffer":0,"byteLength":48,"byteOffset":592,"name":"bufferViewAnimationFloatVec3"},{"buffer":0,"byteLength":1616,"byteOffset":688,"name":"bufferViewAnimationFloatVec4"},{"buffer":0,"byteLength":48600,"byteStride":36,"byteOffset":2344,"target":34962,"name":"BufferViewVertexND"},{"buffer":0,"byteLength":2700,"byteOffset":51060,"target":34963,"name":"BufferViewIndex"}],"extensionsUsed":["ASOBO_normal_map_convention","ASOBO_macro_light","ASOBO_tags","ASOBO_gizmo_object","ASOBO_material_day_night_switch","MSFT_texture_dds","ASOBO_asset_optimized"],"extensionsRequired":["MSFT_texture_dds"],"materials":[{"name":"Metal_galvanized","normalTexture":{"index":2},"occlusionTexture":{"index":1},"pbrMetallicRoughness":{"baseColorFactor":[0.604316533,0.604316533,0.604316533,1.0],"baseColorTexture":{"index":0},"metallicRoughnessTexture":{"index":1}}},{"name":"Light_bulbs","normalTexture":{"index":5},"occlusionTexture":{"index":4},"emissiveTexture":{"index":6},"emissiveFactor":[0.988235354423523,0.988235354423523,0.988235354423523],"pbrMetallicRoughness":{"baseColorFactor":[0.5755396,0.5755396,0.5755396,1.0],"baseColorTexture":{"index":3},"metallicRoughnessTexture":{"index":4}},"extensions":{"ASOBO_material_day_night_switch":{}}}],"meshes":[{"primitives":[{"attributes":{"COLOR_0":11,"NORMAL":8,"POSITION":6,"TANGENT":7,"TEXCOORD_0":9,"TEXCOORD_1":10},"indices":12,"material":0,"mode":4,"extras":{"ASOBO_primitive":{"PrimitiveCount":66,"VertexType":"VTX","VertexVersion":2}}},{"attributes":{"COLOR_0":11,"NORMAL":8,"POSITION":6,"TANGENT":7,"TEXCOORD_0":9,"TEXCOORD_1":10},"indices":12,"material":1,"mode":4,"extras":{"ASOBO_primitive":{"PrimitiveCount":384,"StartIndex":198,"VertexType":"VTX","VertexVersion":2}}}],"name":"Light_Sample_LOD0","extensions":{"ASOBO_gizmo_object":{"gizmo_objects":[{"extensions":{"ASOBO_tags":{"tags":["Collision"]}},"params":{"height":12.1629686,"length":0.5,"width":0.5},"translation":[0.0,6.08148432,0.0],"type":"box"}]}}}],"nodes":[{"translation":[0.0,0.0,0.0],"rotation":[0.0,0.0,0.0,1.0],"scale":[1.0,1.0,1.0],"mesh":0,"name":"Light_Sample_LOD0","children":[1,2]},{"translation":[0.0,0.0,0.0],"rotation":[0.0,0.0,0.0,1.0],"scale":[0.99999994,1.0,1.0],"name":"DURL"},{"translation":[1.03197885,12.1077671,-0.0004863739],"rotation":[0.707106769,0.0,0.0,0.707106769],"scale":[0.9999999,1.0,1.0],"extensions":{"ASOBO_macro_light":{"color":[1.0,0.8808786,0.312363118],"cone_angle":150.0,"day_night_cycle":true,"flash_duration":0.0,"flash_frequency":0.0,"flash_phase":0.0,"has_simmetry":false,"intensity":50.0,"rotation_speed":0.0}},"name":"MacroLightSpot019"}],"scene":0,"scenes":[{"nodes":[0]}],"textures":[{"extensions":{"MSFT_texture_dds":{"source":0}}},{"extensions":{"MSFT_texture_dds":{"source":1}}},{"extensions":{"MSFT_texture_dds":{"source":2}}},{"extensions":{"MSFT_texture_dds":{"source":3}}},{"extensions":{"MSFT_texture_dds":{"source":4}}},{"extensions":{"MSFT_texture_dds":{"source":5}}},{"extensions":{"MSFT_texture_dds":{"source":6}}}],"buffers":[{"byteLength":53760,"uri":"Light_Sample_LOD0.bin"}],"images":[{"uri":"TILE_METAL_GALVA_ALBEDO.PNG.DDS","extras":"ASOBO_image_converted_meta"},{"uri":"TILE_METAL_GALVA_COMP.PNG.DDS","extras":"ASOBO_image_converted_meta"},{"uri":"TILE_METAL_GALVA_NORMAL.PNG.DDS","extras":"ASOBO_image_converted_meta"},{"uri":"AIRPORT_LIGHTS_ALBEDO.PNG.DDS","extras":"ASOBO_image_converted_meta"},{"uri":"AIRPORT_LIGHTS_COMP.PNG.DDS","extras":"ASOBO_image_converted_meta"},{"uri":"AIRPORT_LIGHTS_NORMAL.PNG.DDS","extras":"ASOBO_image_converted_meta"},{"uri":"AIRPORT_LIGHTS_EMISSIVE.PNG.DDS","extras":"ASOBO_image_converted_meta"}]}
